<svg height="512pt" viewBox="0 0 512 512" width="512pt" xmlns="http://www.w3.org/2000/svg" xmlns:xlink="http://www.w3.org/1999/xlink"><linearGradient id="a" gradientUnits="userSpaceOnUse" x1="74.9807" x2="437.0193" y1="74.9807" y2="437.0193"><stop offset="0" stop-color="#a7dcfc"/><stop offset="1" stop-color="#4bb4f5"/></linearGradient><linearGradient id="b" gradientUnits="userSpaceOnUse" x1="105" x2="407" y1="260.4238" y2="260.4238"><stop offset="0" stop-color="#b6b8b5"/><stop offset="1" stop-color="#5c6f74"/></linearGradient><linearGradient id="c" gradientUnits="userSpaceOnUse" x1="122.6953" x2="389.3047" y1="269.2715" y2="269.2715"><stop offset="0" stop-color="#fff"/><stop offset="1" stop-color="#d2ecfd"/></linearGradient><linearGradient id="d" gradientUnits="userSpaceOnUse" x1="327.3711" x2="407" y1="153.6621" y2="153.6621"><stop offset="0" stop-color="#ffa99b"/><stop offset="1" stop-color="#f85b3f"/></linearGradient><linearGradient id="e" gradientUnits="userSpaceOnUse" x1="105" x2="345.0664" y1="153.6621" y2="153.6621"><stop offset="0" stop-color="#5c6f74"/><stop offset="1" stop-color="#203f49"/></linearGradient><linearGradient id="f"><stop offset="0" stop-color="#4097ca"/><stop offset="1" stop-color="#2b5c74"/></linearGradient><linearGradient id="g" gradientUnits="userSpaceOnUse" x1="149.8281" x2="326.7813" xlink:href="#f" y1="295.8145" y2="295.8145"/><linearGradient id="h" gradientUnits="userSpaceOnUse" x1="149.8281" x2="362.1719" xlink:href="#f" y1="331.2051" y2="331.2051"/><linearGradient id="i" gradientUnits="userSpaceOnUse" x1="149.8281" x2="309.0859" y1="242.7285" y2="242.7285"><stop offset="0" stop-color="#eaf7ff"/><stop offset="1" stop-color="#a7dcfc"/></linearGradient><path d="m512 256c0 141.386719-114.613281 256-256 256s-256-114.613281-256-256 114.613281-256 256-256 256 114.613281 256 256zm0 0" fill="url(#a)"/><path d="m256 148.144531v-16.601562l-27.988281 9.839843-40.71875-9.839843 5.886719 22.085937-88.179688 31v204.675782h302v-204.675782zm0 0" fill="url(#b)"/><path d="m256 166.933594h-133.304688v204.675781h266.609376v-204.675781zm0 0" fill="url(#c)"/><path d="m407 184.628906v-61.933594h-61.933594l-17.695312 30.964844 17.695312 30.96875zm0 0" fill="url(#d)"/><path d="m256 122.695312h-151v61.933594h240.066406v-61.933594zm0 0" fill="url(#e)"/><path d="m256 286.96875h-106.171875v17.691406h176.953125v-17.691406zm0 0" fill="url(#g)"/><path d="m256 322.355469h-106.171875v17.699219h212.34375v-17.699219zm0 0" fill="url(#h)"/><path d="m309.085938 216.1875h53.085937v53.085938h-53.085937zm0 0" fill="#4bb4f5"/><path d="m256 216.1875h-106.171875v53.082031h159.257813v-53.082031zm0 0" fill="url(#i)"/></svg>