<svg id="Capa_1" enable-background="new 0 0 512 512" height="512" viewBox="0 0 512 512" width="512" xmlns="http://www.w3.org/2000/svg" xmlns:xlink="http://www.w3.org/1999/xlink"><linearGradient id="SVGID_1_" gradientUnits="userSpaceOnUse" x1="256" x2="256" y1="496" y2="16"><stop offset="0" stop-color="#5558ff"/><stop offset="1" stop-color="#00c0ff"/></linearGradient><linearGradient id="SVGID_2_" gradientUnits="userSpaceOnUse" x1="286.5" x2="286.5" y1="436" y2="76"><stop offset="0" stop-color="#addcff"/><stop offset=".5028" stop-color="#eaf6ff"/><stop offset="1" stop-color="#eaf6ff"/></linearGradient><g><g><g><path d="m256 61-105-45h-136c-8.401 0-15 6.599-15 15v450c0 8.399 6.599 15 15 15h482c8.401 0 15-6.601 15-15v-390z" fill="url(#SVGID_1_)"/></g></g><g><g><path d="m497 16h-346l70.607 70.606c2.813 2.813 6.628 4.394 10.606 4.394h279.787v-60c0-8.401-6.599-15-15-15zm-301 150c-8.291 0-15 6.709-15 15v90c0 8.291 6.709 15 15 15s15-6.709 15-15v-90c0-8.291-6.709-15-15-15zm180 0c-8.291 0-15 6.709-15 15v90c0 8.291 6.709 15 15 15s15-6.709 15-15v-90c0-8.291-6.709-15-15-15zm60 0c-8.291 0-15 6.709-15 15v90c0 8.291 6.709 15 15 15s15-6.709 15-15v-90c0-8.291-6.709-15-15-15zm-180 150c-8.291 0-15 6.709-15 15v90c0 8.291 6.709 15 15 15s15-6.709 15-15v-90c0-8.291-6.709-15-15-15zm-180 0c-8.291 0-15 6.709-15 15v90c0 8.291 6.709 15 15 15s15-6.709 15-15v-90c0-8.291-6.709-15-15-15zm360 0c-8.291 0-15 6.709-15 15v90c0 8.291 6.709 15 15 15s15-6.709 15-15v-90c0-8.291-6.709-15-15-15zm-285-75v-30c0-24.814-20.186-45-45-45s-45 20.186-45 45v30c0 24.814 20.186 45 45 45s45-20.186 45-45zm-30 0c0 8.276-6.738 15-15 15s-15-6.724-15-15v-30c0-8.276 6.738-15 15-15s15 6.724 15 15zm210 0v-30c0-24.814-20.186-45-45-45s-45 20.186-45 45v30c0 24.814 20.186 45 45 45s45-20.186 45-45zm-30 0c0 8.276-6.738 15-15 15s-15-6.724-15-15v-30c0-8.276 6.738-15 15-15s15 6.724 15 15zm-135 75c-24.814 0-45 20.186-45 45v30c0 24.814 20.186 45 45 45s45-20.186 45-45v-30c0-24.814-20.186-45-45-45zm15 75c0 8.276-6.738 15-15 15s-15-6.724-15-15v-30c0-8.276 6.738-15 15-15s15 6.724 15 15zm165-75c-24.814 0-45 20.186-45 45v30c0 24.814 20.186 45 45 45s45-20.186 45-45v-30c0-24.814-20.186-45-45-45zm15 75c0 8.276-6.738 15-15 15s-15-6.724-15-15v-30c0-8.276 6.738-15 15-15s15 6.724 15 15zm-285-285h60c8.291 0 15-6.709 15-15s-6.709-15-15-15h-60c-8.291 0-15 6.709-15 15s6.709 15 15 15z" fill="url(#SVGID_2_)"/></g></g></g></svg>